<svg width="198" height="27" viewBox="0 0 198 27" fill="none" xmlns="http://www.w3.org/2000/svg">
<path d="M20.4001 7.48629C19.5791 7.48629 19.0069 7.09654 18.6835 6.31702C17.4893 6.31702 16.1791 6.60727 14.7527 7.18776C13.8654 7.55264 13.2683 7.88849 12.9615 8.19532C12.6547 8.50215 12.4888 8.74264 12.4639 8.91679C12.4474 9.09093 12.5344 9.2402 12.7252 9.36459C12.9159 9.48069 13.1813 9.59264 13.5213 9.70045C13.8696 9.80825 14.2718 9.91606 14.7279 10.0239C17.1162 10.5795 18.6296 10.9651 19.2681 11.1807C20.5369 11.6036 21.4864 12.068 22.1167 12.5739C22.7137 13.0797 23.0123 13.768 23.0123 14.6388C23.0123 15.3602 22.7884 15.9697 22.3406 16.4673C21.9011 16.9649 21.3164 17.4085 20.5867 17.7983C19.8569 18.188 19.0401 18.5363 18.1362 18.8432C17.2406 19.1417 16.291 19.3988 15.2876 19.6144C14.2925 19.83 13.3098 20.0083 12.3396 20.1493C10.4405 20.4146 8.8193 20.5473 7.47588 20.5473C5.02953 20.5473 3.14294 20.2529 1.8161 19.6641C1.31854 19.4402 0.912199 18.8805 0.597075 17.9849C0.348294 17.2468 0.223903 16.6415 0.223903 16.1688C0.223903 15.6878 0.265367 15.4224 0.348294 15.3727C0.431221 15.3229 0.601222 15.3229 0.858296 15.3727C1.11537 15.4141 1.45122 15.4888 1.86586 15.5966L3.35855 15.9946C5.67222 16.5751 8.11857 16.8654 10.6976 16.8654C12.5966 16.8654 14.2054 16.6954 15.524 16.3554C16.3035 16.148 16.7181 15.9158 16.7679 15.6588C16.801 15.4349 16.1874 15.1571 14.9269 14.8253C14.3547 14.6678 13.6913 14.5019 12.9366 14.3278C9.27955 13.4405 7.07369 12.8683 6.31905 12.6112C5.56441 12.3541 5.07099 12.1261 4.8388 11.927C4.6149 11.728 4.42831 11.5083 4.27904 11.2678C4.00538 10.7951 3.86855 10.3473 3.86855 9.92435C3.86855 9.49313 3.88928 9.16142 3.93075 8.92923C3.9805 8.69703 4.04684 8.48142 4.12977 8.28239C4.30392 7.87605 4.52368 7.59825 4.78904 7.44898C6.92027 6.25483 10.0508 5.2058 14.1805 4.30189C17.8542 3.48921 20.8769 3.08286 23.2486 3.08286C23.7296 3.08286 24.0903 3.16579 24.3308 3.33164C24.7455 3.63848 24.9279 3.96604 24.8781 4.31433C24.8284 4.66263 24.7206 4.98604 24.5547 5.28458C24.3972 5.57482 24.1981 5.84019 23.9577 6.08068C23.7172 6.31288 23.4476 6.52019 23.1491 6.70263C22.8589 6.87678 22.5562 7.0219 22.2411 7.138C21.6108 7.3702 20.9972 7.48629 20.4001 7.48629ZM47.0321 10.6583C47.2975 10.6583 47.4302 10.8822 47.4302 11.33C47.4302 12.1012 46.8912 13.1005 45.8131 14.3278L45.1041 15.0492C42.9563 17.1971 40.9328 18.6276 39.0338 19.3407C37.8562 19.7802 37.0104 19.7595 36.4962 19.2785C36.0733 18.8722 35.7375 18.2171 35.4887 17.3132L35.1901 16.231L32.5406 17.8605L31.0106 18.7312C29.1862 19.7263 27.8179 20.2239 26.9057 20.2239C25.7364 20.2239 24.762 19.772 23.9825 18.868C23.2362 18.0139 22.863 17.0229 22.863 15.8951C22.863 14.7839 23.3067 13.7929 24.194 12.9222C25.4628 11.6783 27.4655 10.538 30.2021 9.50142C32.7894 8.53118 34.8792 8.04605 36.4714 8.04605C37.0104 8.04605 37.2799 8.31142 37.2799 8.84215C37.2799 9.20703 37.2094 9.48069 37.0684 9.66313C36.9275 9.84557 36.6372 10.0322 36.1977 10.2229L34.6304 10.8946C32.3084 11.8648 30.6084 12.8724 29.5304 13.9173C29.2235 14.2075 29.0701 14.4895 29.0701 14.7632C29.0701 15.0368 29.2899 15.1736 29.7294 15.1736C30.1606 15.1736 31.164 14.7092 32.7396 13.7805L33.7721 13.1709C35.3726 12.209 36.7118 11.728 37.7899 11.728C38.7021 11.728 39.3075 12.1302 39.606 12.9346C39.6806 13.1502 39.7511 13.37 39.8175 13.5939C39.8838 13.8095 39.9501 14.0044 40.0165 14.1785C40.1658 14.5849 40.2984 14.788 40.4145 14.788C40.5389 14.788 40.7131 14.73 40.937 14.6139C41.1609 14.4895 41.4055 14.3361 41.6709 14.1536C41.9445 13.9629 42.2265 13.7556 42.5167 13.5317L44.0219 12.3251C45.357 11.2139 46.3604 10.6583 47.0321 10.6583ZM49.6195 11.9519C49.6195 12.2505 49.7314 12.3997 49.9553 12.3997C50.229 12.3997 50.5814 12.2173 51.0126 11.8524L52.0948 10.9195C53.2392 9.93265 54.3297 9.43923 55.3663 9.43923C56.038 9.43923 56.6351 9.99899 57.1575 11.1185C57.6136 12.0805 58.0241 13.5151 58.389 15.4224C58.4553 15.7375 58.5092 15.8951 58.5507 15.8951C58.6005 15.8951 58.7207 15.8205 58.9114 15.6712C59.1105 15.5219 59.351 15.3312 59.6329 15.099C61.6646 13.3658 62.838 12.3997 63.1532 12.2007C63.4766 11.9934 63.7005 11.8566 63.8249 11.7902C63.9493 11.7156 64.0778 11.6492 64.2105 11.5912C64.5422 11.4668 64.8034 11.4046 64.9941 11.4046C65.359 11.4046 65.5415 11.5953 65.5415 11.9768C65.5415 12.5573 65.16 13.4031 64.3971 14.5144C63.5429 15.7583 62.411 16.998 61.0012 18.2337C59.3592 19.6849 57.9246 20.4105 56.6973 20.4105C55.4036 20.4105 54.5329 19.5398 54.0851 17.7983C53.969 17.3505 53.8778 16.9317 53.8114 16.5419L53.6248 15.5717C53.5751 15.3146 53.5087 15.1861 53.4258 15.1861C53.3512 15.1861 53.1895 15.3105 52.9407 15.5593L52.0202 16.4922C50.9919 17.5371 50.1295 18.3 49.4329 18.781C48.0314 19.7595 46.8041 20.2488 45.7509 20.2488C44.4904 20.2488 43.7482 19.6102 43.5243 18.3332C43.458 17.9517 43.4248 17.4707 43.4248 16.8902C43.4248 16.3014 43.5077 15.5841 43.6736 14.7383C43.8394 13.8924 44.0675 13.0466 44.3577 12.2007C44.988 10.3929 45.7716 8.85045 46.7087 7.57337L47.8158 6.10556C50.4943 2.60603 52.7334 0.856269 54.5329 0.856269C54.9392 0.856269 55.2336 1.05529 55.4161 1.45334C55.4741 1.57774 55.5031 1.76432 55.5031 2.0131C55.5031 2.26188 55.3953 2.5853 55.1797 2.98335C54.9641 3.37311 54.6987 3.77945 54.3836 4.20238C54.0685 4.62531 53.7285 5.05653 53.3636 5.49604C53.007 5.92726 52.6795 6.35434 52.3809 6.77727L51.448 8.13313C50.229 9.96582 49.6195 11.2387 49.6195 11.9519ZM74.3234 5.62043C74.083 5.81946 73.8217 5.98531 73.5398 6.118C73.2578 6.24239 72.9427 6.30458 72.5944 6.30458C72.2461 6.30458 71.9103 6.24653 71.5869 6.13044C71.2634 6.01434 70.9815 5.85263 70.741 5.64531C70.2186 5.19751 69.9573 4.62531 69.9573 3.92872C69.9573 2.85896 70.8529 2.06286 72.6442 1.54042C73.2495 1.35798 73.7471 1.26676 74.1369 1.26676C74.5266 1.26676 74.8169 1.31237 75.0076 1.40359C75.2066 1.48652 75.3683 1.59847 75.4927 1.73944C75.7415 2.0214 75.8659 2.31164 75.8659 2.61018C75.8659 2.90042 75.8286 3.16579 75.7539 3.40628C75.6876 3.64677 75.5881 3.89555 75.4554 4.15262C75.3227 4.4097 75.161 4.66677 74.9703 4.92385C74.7795 5.18092 74.5639 5.41312 74.3234 5.62043ZM71.1888 19.3159C70.5586 19.6393 69.9449 19.8963 69.3478 20.0871C68.7507 20.2861 68.162 20.3856 67.5815 20.3856C67.0093 20.3856 66.4122 20.2488 65.7902 19.9751C65.1766 19.6932 64.6293 19.32 64.1483 18.8556C63.0785 17.819 62.5436 16.6663 62.5436 15.3975C62.5436 14.2283 62.8919 13.0424 63.5885 11.84C64.2271 10.7536 65.0398 9.84143 66.0266 9.10337C67.0134 8.36532 67.9298 7.9963 68.7756 7.9963C69.9864 7.9963 70.6332 8.3363 70.7161 9.0163C70.741 9.22362 70.7534 9.46411 70.7534 9.73777C70.7534 10.0114 70.6871 10.3265 70.5544 10.6831C70.43 11.0314 70.2642 11.3839 70.0568 11.7405C69.8578 12.0888 69.6339 12.4329 69.3851 12.7729C69.1446 13.1046 68.9125 13.4073 68.6886 13.681C68.2573 14.2034 67.9132 14.5807 67.6561 14.8129C67.6561 15.0949 67.8676 15.3851 68.2905 15.6836C68.6886 15.9656 69.0244 16.1066 69.2981 16.1066C69.58 16.1066 69.9076 16.0402 70.2808 15.9075C70.6622 15.7749 71.052 15.5966 71.45 15.3727C71.8564 15.1488 72.2669 14.8917 72.6815 14.6014C73.1044 14.3112 73.5191 14.0127 73.9254 13.7058L76.2017 11.927C77.1057 11.2719 77.8396 10.9444 78.4035 10.9444C78.6274 10.9444 78.7974 11.0273 78.9135 11.1931C79.0379 11.3507 79.1001 11.5373 79.1001 11.7529C79.1001 11.9685 78.9922 12.267 78.7766 12.6485C78.561 13.0217 78.2625 13.4363 77.881 13.8924C77.5079 14.3485 77.0683 14.8253 76.5625 15.3229C76.0566 15.8205 75.5093 16.3097 74.9205 16.7907C74.3317 17.2717 73.7181 17.7319 73.0795 18.1715C72.4493 18.6027 71.8191 18.9841 71.1888 19.3159ZM90.9296 11.218C91.4603 11.218 91.7257 11.4378 91.7257 11.8773C91.7257 12.4163 91.4023 13.059 90.7555 13.8053C89.6857 15.0492 88.4252 16.26 86.974 17.4376C84.6106 19.3283 82.5001 20.2737 80.6425 20.2737C79.3074 20.2737 78.2127 19.6932 77.3586 18.5322C76.4713 17.3215 76.0276 15.6961 76.0276 13.6561C76.0276 10.9775 77.3337 8.01703 79.9459 4.77458C81.6044 2.70969 83.1676 1.30822 84.6354 0.570171C85.0915 0.337975 85.4398 0.221877 85.6803 0.221877C85.9291 0.221877 86.153 0.26334 86.352 0.346268C86.5593 0.420902 86.7501 0.528707 86.9242 0.669683C87.3306 1.00968 87.5337 1.42017 87.5337 1.90115C87.5337 2.38213 87.4011 2.95433 87.1357 3.61774C86.8703 4.27287 86.4847 4.9736 85.9789 5.71995C84.9091 7.30385 83.462 8.82142 81.6376 10.2726C81.1649 11.1766 80.9286 12.2629 80.9286 13.5317C80.9286 14.1039 81.111 14.6429 81.4759 15.1488C81.8491 15.6546 82.2596 15.9075 82.7074 15.9075C83.321 15.9075 84.4945 15.2732 86.2276 14.0044L88.4418 12.3002C89.3457 11.5787 90.175 11.218 90.9296 11.218ZM108.245 14.3153C108.245 15.0783 109.103 15.4597 110.82 15.4597C113.142 15.4597 115.368 15.0492 117.499 14.2283C118.171 13.9712 118.855 13.6892 119.552 13.3824L120.958 12.5614C122.475 11.699 123.553 11.2678 124.192 11.2678C124.465 11.2678 124.681 11.3092 124.839 11.3922C125.253 11.5248 125.585 11.7363 125.834 12.0266C126.29 12.5573 126.518 12.9636 126.518 13.2456C126.518 13.5192 126.447 13.8758 126.306 14.3153C126.165 14.7466 125.975 15.2193 125.734 15.7334C125.494 16.2393 125.216 16.7658 124.901 17.3132C124.586 17.8605 124.25 18.3829 123.893 18.8805C123.097 20.0166 122.388 20.8376 121.766 21.3434C121.534 21.6337 121.248 21.9571 120.908 22.3137C120.568 22.6703 120.099 23.0476 119.502 23.4456C118.913 23.852 118.296 24.2086 117.649 24.5154C117.01 24.8305 116.355 25.1 115.683 25.3239C115.02 25.5561 114.381 25.7469 113.768 25.8961C112.59 26.1864 111.682 26.3315 111.044 26.3315C110.413 26.3315 109.953 26.203 109.663 25.9459C109.381 25.6971 109.24 25.3778 109.24 24.9881C109.24 24.6066 109.373 24.2251 109.638 23.8437C109.912 23.4622 110.277 23.0932 110.733 22.7366C111.197 22.38 111.732 22.0359 112.337 21.7042C112.951 21.3807 113.594 21.0739 114.265 20.7837C115.484 20.2529 116.84 19.7761 118.333 19.3532C119.179 18.1922 119.933 17.0063 120.597 15.7956L119.987 16.1439C119.78 16.2517 119.577 16.3512 119.378 16.4424C117.877 17.3463 115.982 18.1507 113.693 18.8556C110.973 19.6932 108.382 20.112 105.919 20.112C104.534 20.112 103.435 19.6517 102.622 18.7312C101.884 17.8937 101.515 16.8322 101.515 15.5468C101.515 14.1868 102.432 12.7231 104.264 11.1558C105.873 9.77923 108.05 8.43996 110.795 7.138C113.283 5.94385 115.858 4.96531 118.519 4.20238C121.148 3.43945 123.271 3.05799 124.888 3.05799C125.842 3.05799 126.489 3.3814 126.829 4.02823C126.961 4.26872 127.028 4.61287 127.028 5.06068C127.028 5.50019 126.862 5.89409 126.53 6.24239C126.199 6.59068 125.767 6.86434 125.237 7.06337C124.283 7.42825 123.114 7.61069 121.729 7.61069C120.344 7.61069 119.092 7.52776 117.972 7.3619C116.397 7.87605 114.792 8.63069 113.158 9.62581C111.79 10.4551 110.608 11.3507 109.613 12.3127C108.701 13.1917 108.245 13.8592 108.245 14.3153ZM150.65 10.6583C150.915 10.6583 151.048 10.8822 151.048 11.33C151.048 12.1012 150.509 13.1005 149.431 14.3278L148.722 15.0492C146.574 17.1971 144.55 18.6276 142.651 19.3407C141.474 19.7802 140.628 19.7595 140.114 19.2785C139.691 18.8722 139.355 18.2171 139.106 17.3132L138.808 16.231L136.158 17.8605L134.628 18.7312C132.804 19.7263 131.435 20.2239 130.523 20.2239C129.354 20.2239 128.38 19.772 127.6 18.868C126.854 18.0139 126.48 17.0229 126.48 15.8951C126.48 14.7839 126.924 13.7929 127.811 12.9222C129.08 11.6783 131.083 10.538 133.82 9.50142C136.407 8.53118 138.497 8.04605 140.089 8.04605C140.628 8.04605 140.897 8.31142 140.897 8.84215C140.897 9.20703 140.827 9.48069 140.686 9.66313C140.545 9.84557 140.255 10.0322 139.815 10.2229L138.248 10.8946C135.926 11.8648 134.226 12.8724 133.148 13.9173C132.841 14.2075 132.688 14.4895 132.688 14.7632C132.688 15.0368 132.907 15.1736 133.347 15.1736C133.778 15.1736 134.781 14.7092 136.357 13.7805L137.39 13.1709C138.99 12.209 140.329 11.728 141.407 11.728C142.32 11.728 142.925 12.1302 143.223 12.9346C143.298 13.1502 143.369 13.37 143.435 13.5939C143.501 13.8095 143.568 14.0044 143.634 14.1785C143.783 14.5849 143.916 14.788 144.032 14.788C144.156 14.788 144.331 14.73 144.554 14.6139C144.778 14.4895 145.023 14.3361 145.288 14.1536C145.562 13.9629 145.844 13.7556 146.134 13.5317L147.639 12.3251C148.974 11.2139 149.978 10.6583 150.65 10.6583ZM161.82 11.4792C162.633 11.4792 163.039 11.7612 163.039 12.3251C163.039 12.8641 162.657 13.5607 161.895 14.4149L161.285 15.0492C160.547 15.8039 159.685 16.5461 158.698 17.2758C157.719 18.0056 156.857 18.5819 156.11 19.0049C154.377 19.9668 152.806 20.4478 151.396 20.4478C150.069 20.4478 148.987 20.0498 148.149 19.2537C147.428 18.5654 147.067 17.8397 147.067 17.0768C147.067 16.3139 147.142 15.5551 147.291 14.8005C147.44 14.0458 147.635 13.3078 147.876 12.5863C148.357 11.1185 148.883 9.87045 149.455 8.84215C149.605 8.5602 149.679 8.37776 149.679 8.29483H148.075C147.469 8.29483 147.001 8.15386 146.669 7.87191C146.337 7.58995 146.172 7.27068 146.172 6.9141C146.172 6.55751 146.238 6.29629 146.371 6.13044C146.503 5.96458 146.669 5.84434 146.868 5.7697C147.15 5.6536 147.565 5.59556 148.112 5.59556L151.16 5.60799C151.226 5.58312 151.359 5.40482 151.558 5.07311L152.316 3.76701C152.64 3.18652 152.963 2.75945 153.287 2.48579C153.618 2.21213 154.004 2.0753 154.444 2.0753C154.891 2.0753 155.264 2.11676 155.563 2.19969C155.87 2.28262 156.127 2.38628 156.334 2.51067C156.741 2.77603 156.944 3.06628 156.944 3.3814C156.944 3.51408 156.898 3.69238 156.807 3.91628L156.11 5.60799L162.019 5.59556C162.533 5.59556 162.79 5.86092 162.79 6.39166C162.79 7.65215 161.666 8.28239 159.419 8.28239L154.866 8.29483C154.767 8.34459 154.597 8.58508 154.356 9.0163L153.797 10.0487C153.656 10.3058 153.556 10.5007 153.498 10.6334L153.224 11.2429C152.669 12.4951 152.391 13.399 152.391 13.9546C152.391 14.5102 152.536 14.9746 152.826 15.3478C153.125 15.721 153.519 15.9075 154.008 15.9075C154.497 15.9075 154.974 15.8122 155.439 15.6214C155.911 15.4307 156.372 15.1985 156.819 14.9249C157.632 14.419 158.271 13.9505 158.735 13.5192C159.199 13.088 159.585 12.7605 159.892 12.5366C159.892 12.5366 160.182 12.3334 160.763 11.927C161.21 11.6285 161.563 11.4792 161.82 11.4792ZM165.925 11.9519C165.925 12.2505 166.037 12.3997 166.261 12.3997C166.534 12.3997 166.887 12.2173 167.318 11.8524L168.4 10.9195C169.545 9.93265 170.635 9.43923 171.672 9.43923C172.343 9.43923 172.94 9.99899 173.463 11.1185C173.919 12.0805 174.329 13.5151 174.694 15.4224C174.761 15.7375 174.815 15.8951 174.856 15.8951C174.906 15.8951 175.026 15.8205 175.217 15.6712C175.416 15.5219 175.656 15.3312 175.938 15.099C177.97 13.3658 179.143 12.3997 179.458 12.2007C179.782 11.9934 180.006 11.8566 180.13 11.7902C180.255 11.7156 180.383 11.6492 180.516 11.5912C180.848 11.4668 181.109 11.4046 181.299 11.4046C181.664 11.4046 181.847 11.5953 181.847 11.9768C181.847 12.5573 181.465 13.4031 180.702 14.5144C179.848 15.7583 178.716 16.998 177.307 18.2337C175.665 19.6849 174.23 20.4105 173.003 20.4105C171.709 20.4105 170.838 19.5398 170.39 17.7983C170.274 17.3505 170.183 16.9317 170.117 16.5419L169.93 15.5717C169.88 15.3146 169.814 15.1861 169.731 15.1861C169.656 15.1861 169.495 15.3105 169.246 15.5593L168.326 16.4922C167.297 17.5371 166.435 18.3 165.738 18.781C164.337 19.7595 163.109 20.2488 162.056 20.2488C160.796 20.2488 160.054 19.6102 159.83 18.3332C159.763 17.9517 159.73 17.4707 159.73 16.8902C159.73 16.3014 159.813 15.5841 159.979 14.7383C160.145 13.8924 160.373 13.0466 160.663 12.2007C161.293 10.3929 162.077 8.85045 163.014 7.57337L164.121 6.10556C166.8 2.60603 169.039 0.856269 170.838 0.856269C171.245 0.856269 171.539 1.05529 171.721 1.45334C171.779 1.57774 171.808 1.76432 171.808 2.0131C171.808 2.26188 171.701 2.5853 171.485 2.98335C171.269 3.37311 171.004 3.77945 170.689 4.20238C170.374 4.62531 170.034 5.05653 169.669 5.49604C169.312 5.92726 168.985 6.35434 168.686 6.77727L167.753 8.13313C166.534 9.96582 165.925 11.2387 165.925 11.9519ZM197.022 10.8573C197.42 10.8573 197.62 11.0812 197.62 11.529C197.62 11.8275 197.516 12.2048 197.309 12.6609C197.11 13.1088 196.819 13.5317 196.438 13.9297C196.056 14.3195 195.617 14.7258 195.119 15.1488C194.63 15.5717 194.054 16.0154 193.39 16.4797C192.735 16.9441 192.01 17.4044 191.213 17.8605C190.417 18.3166 189.571 18.7271 188.676 19.0919C186.694 19.9046 184.774 20.311 182.917 20.311C181.498 20.311 180.259 19.942 179.197 19.2039C178.086 18.4327 177.53 17.4956 177.53 16.3927C177.53 14.6595 178.463 13.0134 180.329 11.4544C181.938 10.1109 183.833 9.0702 186.014 8.33215C187.341 7.88434 188.464 7.66044 189.385 7.66044C190.131 7.66044 190.761 7.84288 191.276 8.20776C191.823 8.60581 192.097 9.14069 192.097 9.8124C192.097 10.8656 191.263 12.0307 189.596 13.3078C189.331 13.5151 189.09 13.6892 188.875 13.8302L188.427 14.1288C187.598 14.7092 186.337 15.3602 184.646 16.0817C185.168 16.3554 185.653 16.4922 186.101 16.4922C186.557 16.4922 186.963 16.4383 187.32 16.3305C187.685 16.2227 188.095 16.0693 188.551 15.8702C189.008 15.6712 189.493 15.4349 190.007 15.1612C190.529 14.8792 191.056 14.5724 191.587 14.2407C192.772 13.5027 193.801 12.748 194.671 11.9768C195.128 11.5539 195.708 11.218 196.413 10.9692C196.645 10.8946 196.848 10.8573 197.022 10.8573ZM183.302 14.3527L183.986 14.0044C184.21 13.8883 184.409 13.7805 184.583 13.681C186.259 12.719 187.212 12.1261 187.444 11.9022C187.677 11.6783 187.793 11.5248 187.793 11.4419C187.793 11.3507 187.768 11.247 187.718 11.1309C187.668 11.0148 187.602 10.9112 187.519 10.82C187.32 10.5878 187.109 10.4717 186.885 10.4717C186.661 10.4717 186.412 10.5131 186.138 10.5961C185.873 10.679 185.603 10.7951 185.33 10.9444C185.056 11.0853 184.791 11.2595 184.534 11.4668C184.285 11.6658 184.065 11.8814 183.874 12.1136C183.435 12.6361 183.215 13.088 183.215 13.4695C183.215 13.851 183.244 14.1453 183.302 14.3527Z" fill="#10100E"/>
</svg>
