<svg width="100" height="100" viewBox="0 0 100 100" fill="none" xmlns="http://www.w3.org/2000/svg">
<g clip-path="url(#clip0_166_392)">
<rect x="-1" width="100" height="100" rx="5" fill="#FFFAF0"/>
<path d="M7.83556 77.7244H11.4542L12.9227 83.3884C15.0204 85.3289 17.6951 85.8533 20.0027 85.8533C23.4116 85.8533 26.6107 84.0178 26.6107 80.7662C26.6107 77.5671 25.1947 75.8889 19.5831 72.952C15.4924 70.8018 8.77956 69.0187 8.77956 60.4178C8.77956 53.0231 14.7582 49.1947 21.9431 49.1947C24.8276 49.1947 27.712 49.7716 30.6489 50.9778L31.4356 49.1422H34.0053C34.0053 52.9707 33.7956 56.904 33.4809 60.7324H29.8622L28.9707 54.544C27.0302 53.3902 24.5653 52.7609 22.2578 52.7609C19.0062 52.7609 16.7511 53.9671 16.7511 57.5333C16.7511 62.4631 21.4187 64.1938 25.1947 66.0293C32.4844 69.5431 35.0542 72.7422 35.0542 77.4622C35.0542 85.6436 28.4462 89.472 20.5271 89.472C16.4889 89.472 12.3982 88.6853 8.25511 86.8498C8.09778 83.8604 7.94044 80.7138 7.83556 77.7244ZM59.2827 52.8658C51.6258 52.8658 47.9023 59.1591 47.9023 69.5431C47.9023 78.9307 51.3112 85.7484 58.0241 85.7484C61.3281 85.7484 63.5832 85.1191 66.0481 83.5982L65.8383 73.2142L61.6427 72.5849C61.4854 72.2178 61.3805 71.7458 61.3805 71.2213C61.3805 70.6969 61.4854 70.1724 61.6427 69.648C64.265 69.8053 65.8383 69.9102 68.4605 69.9102C71.0303 69.9102 73.6525 69.8053 76.2747 69.648C76.4321 70.12 76.537 70.592 76.537 71.1164C76.537 71.536 76.4845 71.9556 76.2747 72.3751L73.3903 73.1093L73.0232 85.9058C67.4116 88.6329 61.6952 89.5244 57.3423 89.5244C46.6961 89.5244 38.8294 82.1822 38.8294 69.648C38.8294 57.1662 46.0143 49.1422 58.8632 49.1422C62.1147 49.1422 65.1041 49.6142 69.457 50.6107L69.9814 49.1422H72.6561C72.5512 52.8133 72.3414 57.0613 72.0267 60.7324H68.4081L67.4116 54.544C64.8943 53.4951 61.4854 52.8658 59.2827 52.8658Z" fill="#10100E"/>
</g>
<defs>
<clipPath id="clip0_166_392">
<rect width="100" height="100" fill="white"/>
</clipPath>
</defs>
</svg>
