<svg width="60" height="26" viewBox="0 0 60 26" fill="none" xmlns="http://www.w3.org/2000/svg">
<rect width="60" height="23.0769" fill="#10100E"/>
<path d="M13.1078 15.3782C12.7289 15.3782 12.4648 15.1983 12.3155 14.8385C11.7644 14.8385 11.1597 14.9725 10.5013 15.2404C10.0918 15.4088 9.81623 15.5638 9.67462 15.7054C9.533 15.847 9.45646 15.958 9.44497 16.0384C9.43732 16.1188 9.47751 16.1877 9.56554 16.2451C9.65357 16.2987 9.77605 16.3504 9.93297 16.4001C10.0937 16.4499 10.2793 16.4996 10.4899 16.5494C11.5921 16.8058 12.2907 16.9838 12.5854 17.0833C13.171 17.2785 13.6092 17.4928 13.9001 17.7263C14.1756 17.9598 14.3134 18.2775 14.3134 18.6793C14.3134 19.0123 14.2101 19.2936 14.0034 19.5233C13.8006 19.7529 13.5307 19.9577 13.1939 20.1376C12.8571 20.3175 12.4801 20.4782 12.0629 20.6198C11.6496 20.7576 11.2113 20.8763 10.7482 20.9758C10.2889 21.0753 9.83537 21.1576 9.38756 21.2226C8.51109 21.3451 7.76283 21.4064 7.14279 21.4064C6.0137 21.4064 5.14297 21.2705 4.53058 20.9987C4.30094 20.8954 4.1134 20.637 3.96796 20.2237C3.85313 19.883 3.79572 19.6036 3.79572 19.3855C3.79572 19.1635 3.81486 19.041 3.85313 19.0181C3.89141 18.9951 3.96987 18.9951 4.08852 19.0181C4.20717 19.0372 4.36218 19.0716 4.55355 19.1214L5.24248 19.3051C6.31033 19.573 7.43941 19.707 8.62974 19.707C9.50621 19.707 10.2487 19.6285 10.8573 19.4716C11.2171 19.3759 11.4084 19.2687 11.4314 19.1501C11.4467 19.0468 11.1635 18.9185 10.5817 18.7654C10.3176 18.6927 10.0114 18.6162 9.66314 18.5358C7.97525 18.1263 6.95716 17.8622 6.60887 17.7435C6.26057 17.6249 6.03284 17.5196 5.92567 17.4278C5.82233 17.3359 5.73622 17.2345 5.66732 17.1235C5.54102 16.9053 5.47787 16.6986 5.47787 16.5034C5.47787 16.3044 5.48744 16.1513 5.50657 16.0442C5.52954 15.937 5.56016 15.8375 5.59843 15.7456C5.67881 15.5581 5.78023 15.4299 5.90271 15.361C6.88635 14.8098 8.3312 14.3257 10.2372 13.9085C11.9328 13.5334 13.3279 13.3458 14.4225 13.3458C14.6445 13.3458 14.811 13.3841 14.922 13.4607C15.1134 13.6023 15.1976 13.7535 15.1746 13.9142C15.1516 14.075 15.1019 14.2242 15.0253 14.362C14.9526 14.496 14.8608 14.6185 14.7498 14.7294C14.6388 14.8366 14.5144 14.9323 14.3766 15.0165C14.2426 15.0969 14.1029 15.1639 13.9575 15.2174C13.6666 15.3246 13.3834 15.3782 13.1078 15.3782ZM25.3995 16.8422C25.522 16.8422 25.5832 16.9455 25.5832 17.1522C25.5832 17.5081 25.3345 17.9693 24.8369 18.5358L24.5096 18.8688C23.5183 19.8601 22.5845 20.5203 21.708 20.8495C21.1645 21.0523 20.7741 21.0428 20.5368 20.8208C20.3416 20.6332 20.1866 20.3309 20.0718 19.9137L19.934 19.4142L18.7111 20.1663L18.005 20.5682C17.1629 21.0274 16.5314 21.2571 16.1104 21.2571C15.5707 21.2571 15.121 21.0485 14.7612 20.6313C14.4168 20.2371 14.2445 19.7797 14.2445 19.2592C14.2445 18.7463 14.4493 18.2889 14.8588 17.8871C15.4444 17.3129 16.3688 16.7867 17.6318 16.3083C18.8259 15.8604 19.7905 15.6365 20.5253 15.6365C20.7741 15.6365 20.8985 15.759 20.8985 16.004C20.8985 16.1724 20.866 16.2987 20.8009 16.3829C20.7358 16.4671 20.6019 16.5532 20.399 16.6412L19.6756 16.9513C18.604 17.3991 17.8193 17.8641 17.3218 18.3463C17.1802 18.4803 17.1094 18.6104 17.1094 18.7367C17.1094 18.863 17.2108 18.9262 17.4136 18.9262C17.6127 18.9262 18.0758 18.7119 18.803 18.2832L19.2795 18.0019C20.0182 17.5579 20.6363 17.3359 21.1339 17.3359C21.5549 17.3359 21.8343 17.5215 21.9721 17.8928C22.0065 17.9923 22.0391 18.0937 22.0697 18.1971C22.1003 18.2966 22.1309 18.3865 22.1615 18.4669C22.2304 18.6545 22.2917 18.7482 22.3452 18.7482C22.4027 18.7482 22.483 18.7214 22.5864 18.6678C22.6897 18.6104 22.8026 18.5396 22.9251 18.4554C23.0514 18.3674 23.1815 18.2717 23.3155 18.1684L24.0102 17.6115C24.6264 17.0986 25.0895 16.8422 25.3995 16.8422ZM26.5937 17.4392C26.5937 17.577 26.6453 17.6459 26.7487 17.6459C26.875 17.6459 27.0376 17.5617 27.2367 17.3933L27.7362 16.9627C28.2643 16.5073 28.7676 16.2795 29.2461 16.2795C29.5561 16.2795 29.8317 16.5379 30.0728 17.0546C30.2833 17.4986 30.4727 18.1607 30.6412 19.041C30.6718 19.1865 30.6966 19.2592 30.7158 19.2592C30.7388 19.2592 30.7942 19.2247 30.8823 19.1558C30.9741 19.0869 31.0851 18.9989 31.2153 18.8918C32.153 18.0918 32.6946 17.6459 32.84 17.5541C32.9893 17.4584 33.0926 17.3952 33.15 17.3646C33.2074 17.3302 33.2668 17.2995 33.328 17.2728C33.4811 17.2153 33.6017 17.1866 33.6897 17.1866C33.8581 17.1866 33.9423 17.2747 33.9423 17.4507C33.9423 17.7187 33.7662 18.109 33.4141 18.6219C33.0199 19.196 32.4974 19.7682 31.8468 20.3385C31.089 21.0083 30.4268 21.3432 29.8604 21.3432C29.2633 21.3432 28.8614 20.9413 28.6547 20.1376C28.6011 19.9309 28.559 19.7376 28.5284 19.5577L28.4423 19.1099C28.4193 18.9913 28.3887 18.9319 28.3504 18.9319C28.316 18.9319 28.2414 18.9893 28.1265 19.1042L27.7017 19.5348C27.2271 20.017 26.8291 20.3691 26.5076 20.5911C25.8607 21.0428 25.2943 21.2686 24.8082 21.2686C24.2264 21.2686 23.8839 20.9739 23.7805 20.3844C23.7499 20.2084 23.7346 19.9864 23.7346 19.7185C23.7346 19.4467 23.7729 19.1157 23.8494 18.7253C23.926 18.3349 24.0312 17.9445 24.1652 17.5541C24.4561 16.7197 24.8178 16.0078 25.2503 15.4184L25.7612 14.7409C26.9975 13.1258 28.0309 12.3182 28.8614 12.3182C29.049 12.3182 29.1848 12.41 29.269 12.5938C29.2958 12.6512 29.3092 12.7373 29.3092 12.8521C29.3092 12.9669 29.2595 13.1162 29.1599 13.2999C29.0604 13.4798 28.938 13.6673 28.7925 13.8625C28.6471 14.0577 28.4901 14.2568 28.3217 14.4596C28.1572 14.6586 28.006 14.8558 27.8682 15.0509L27.4376 15.6767C26.875 16.5226 26.5937 17.1101 26.5937 17.4392ZM37.9955 14.517C37.8845 14.6089 37.764 14.6854 37.6338 14.7467C37.5037 14.8041 37.3582 14.8328 37.1975 14.8328C37.0367 14.8328 36.8817 14.806 36.7325 14.7524C36.5832 14.6988 36.4531 14.6242 36.3421 14.5285C36.1009 14.3218 35.9804 14.0577 35.9804 13.7362C35.9804 13.2425 36.3937 12.8751 37.2205 12.6339C37.4999 12.5497 37.7295 12.5076 37.9094 12.5076C38.0893 12.5076 38.2232 12.5287 38.3113 12.5708C38.4031 12.6091 38.4778 12.6607 38.5352 12.7258C38.65 12.8559 38.7074 12.9899 38.7074 13.1277C38.7074 13.2616 38.6902 13.3841 38.6557 13.4951C38.6251 13.6061 38.5792 13.7209 38.518 13.8396C38.4567 13.9582 38.3821 14.0769 38.2941 14.1955C38.206 14.3142 38.1065 14.4213 37.9955 14.517ZM36.5488 20.838C36.2579 20.9873 35.9746 21.1059 35.6991 21.1939C35.4235 21.2858 35.1518 21.3317 34.8838 21.3317C34.6197 21.3317 34.3442 21.2686 34.0571 21.1423C33.7739 21.0121 33.5213 20.8399 33.2993 20.6256C32.8055 20.1471 32.5587 19.6151 32.5587 19.0295C32.5587 18.4899 32.7194 17.9426 33.0409 17.3876C33.3356 16.8862 33.7107 16.4652 34.1662 16.1245C34.6217 15.7839 35.0446 15.6136 35.435 15.6136C35.9938 15.6136 36.2923 15.7705 36.3306 16.0843C36.3421 16.18 36.3478 16.291 36.3478 16.4173C36.3478 16.5436 36.3172 16.6891 36.256 16.8537C36.1985 17.0144 36.122 17.1771 36.0263 17.3417C35.9345 17.5024 35.8311 17.6612 35.7163 17.8182C35.6053 17.9713 35.4981 18.111 35.3948 18.2373C35.1958 18.4784 35.0369 18.6525 34.9183 18.7597C34.9183 18.8898 35.0159 19.0238 35.2111 19.1616C35.3948 19.2917 35.5498 19.3568 35.6761 19.3568C35.8062 19.3568 35.9574 19.3262 36.1297 19.2649C36.3057 19.2037 36.4856 19.1214 36.6693 19.0181C36.8569 18.9147 37.0463 18.7961 37.2377 18.6621C37.4329 18.5281 37.6243 18.3904 37.8118 18.2487L38.8624 17.4278C39.2796 17.1254 39.6183 16.9742 39.8786 16.9742C39.9819 16.9742 40.0604 17.0125 40.114 17.089C40.1714 17.1618 40.2001 17.2479 40.2001 17.3474C40.2001 17.4469 40.1503 17.5847 40.0508 17.7608C39.9513 17.933 39.8135 18.1244 39.6375 18.3349C39.4652 18.5454 39.2624 18.7654 39.0289 18.9951C38.7954 19.2247 38.5428 19.4506 38.2711 19.6725C37.9993 19.8945 37.7161 20.107 37.4214 20.3098C37.1305 20.5088 36.8396 20.6849 36.5488 20.838ZM45.6599 17.1005C45.9048 17.1005 46.0273 17.202 46.0273 17.4048C46.0273 17.6536 45.8781 17.9502 45.5795 18.2947C45.0858 18.8688 44.504 19.4276 43.8342 19.9711C42.7434 20.8437 41.7693 21.2801 40.912 21.2801C40.2958 21.2801 39.7906 21.0121 39.3963 20.4763C38.9868 19.9175 38.782 19.1673 38.782 18.2258C38.782 16.9895 39.3849 15.6231 40.5905 14.1266C41.356 13.1736 42.0774 12.5268 42.7549 12.1861C42.9654 12.079 43.1261 12.0254 43.2371 12.0254C43.352 12.0254 43.4553 12.0445 43.5472 12.0828C43.6428 12.1172 43.7309 12.167 43.8113 12.2321C43.9988 12.389 44.0926 12.5784 44.0926 12.8004C44.0926 13.0224 44.0313 13.2865 43.9089 13.5927C43.7864 13.8951 43.6084 14.2185 43.3749 14.563C42.8812 15.294 42.2133 15.9944 41.3713 16.6642C41.1531 17.0814 41.044 17.5828 41.044 18.1684C41.044 18.4325 41.1282 18.6812 41.2966 18.9147C41.4689 19.1482 41.6583 19.2649 41.865 19.2649C42.1482 19.2649 42.6898 18.9721 43.4898 18.3865L44.5117 17.6C44.9289 17.267 45.3116 17.1005 45.6599 17.1005Z" fill="#FEF7E7"/>
<path d="M49.3845 14.6974V0.922974H56.7302L49.3845 14.6974L53.3277 13.4983L49.3845 21.4309V14.6974Z" fill="#FEF7E7"/>
<path d="M49.3845 0.922974V21.4309L53.3277 13.4983L49.3845 14.6974L56.7302 0.922974H49.3845Z" stroke="#10100E" stroke-width="0.021984"/>
<path d="M57.3899 8.11115V21.8956H50.0442L57.3899 8.11115L53.4467 9.31113L57.3899 1.37275V8.11115Z" fill="#FEF7E7"/>
<path d="M57.3899 21.8956V1.37275L53.4467 9.31113L57.3899 8.11115L50.0442 21.8956H57.3899Z" stroke="#10100E" stroke-width="0.021984"/>
</svg>
